<mxfile host="app.diagrams.net" modified="2023-09-16T13:40:33.235Z" agent="Mozilla/5.0 (Windows NT 10.0; Win64; x64) AppleWebKit/537.36 (KHTML, like Gecko) Chrome/116.0.0.0 Safari/537.36" etag="C4WrwPLODVQ_0vdnZZW6" version="21.7.5" type="device">
  <diagram name="PÃ¡gina-1" id="1lhPqAJK1OYN2e6JQkgt">
    <mxGraphModel dx="1050" dy="534" grid="1" gridSize="10" guides="1" tooltips="1" connect="1" arrows="1" fold="1" page="1" pageScale="1" pageWidth="827" pageHeight="1169" math="0" shadow="0">
      <root>
        <mxCell id="0" />
        <mxCell id="1" parent="0" />
        <mxCell id="KTBIp18I1cc_x3fcVHSp-33" style="edgeStyle=orthogonalEdgeStyle;rounded=0;orthogonalLoop=1;jettySize=auto;html=1;" edge="1" parent="1" source="KTBIp18I1cc_x3fcVHSp-5" target="KTBIp18I1cc_x3fcVHSp-17">
          <mxGeometry relative="1" as="geometry">
            <Array as="points">
              <mxPoint x="420" y="200" />
            </Array>
          </mxGeometry>
        </mxCell>
        <mxCell id="KTBIp18I1cc_x3fcVHSp-5" value="cafe" style="swimlane;fontStyle=0;childLayout=stackLayout;horizontal=1;startSize=26;fillColor=none;horizontalStack=0;resizeParent=1;resizeParentMax=0;resizeLast=0;collapsible=1;marginBottom=0;whiteSpace=wrap;html=1;" vertex="1" parent="1">
          <mxGeometry x="110" y="160" width="140" height="52" as="geometry" />
        </mxCell>
        <mxCell id="KTBIp18I1cc_x3fcVHSp-6" value="-costo() : double Q3" style="text;strokeColor=none;fillColor=none;align=left;verticalAlign=top;spacingLeft=4;spacingRight=4;overflow=hidden;rotatable=0;points=[[0,0.5],[1,0.5]];portConstraint=eastwest;whiteSpace=wrap;html=1;" vertex="1" parent="KTBIp18I1cc_x3fcVHSp-5">
          <mxGeometry y="26" width="140" height="26" as="geometry" />
        </mxCell>
        <mxCell id="KTBIp18I1cc_x3fcVHSp-34" style="edgeStyle=orthogonalEdgeStyle;rounded=0;orthogonalLoop=1;jettySize=auto;html=1;" edge="1" parent="1" source="KTBIp18I1cc_x3fcVHSp-9" target="KTBIp18I1cc_x3fcVHSp-17">
          <mxGeometry relative="1" as="geometry" />
        </mxCell>
        <mxCell id="KTBIp18I1cc_x3fcVHSp-9" value="te" style="swimlane;fontStyle=0;childLayout=stackLayout;horizontal=1;startSize=26;fillColor=none;horizontalStack=0;resizeParent=1;resizeParentMax=0;resizeLast=0;collapsible=1;marginBottom=0;whiteSpace=wrap;html=1;" vertex="1" parent="1">
          <mxGeometry x="550" y="170" width="140" height="52" as="geometry" />
        </mxCell>
        <mxCell id="KTBIp18I1cc_x3fcVHSp-10" value="-costo(): double Q5" style="text;strokeColor=none;fillColor=none;align=left;verticalAlign=top;spacingLeft=4;spacingRight=4;overflow=hidden;rotatable=0;points=[[0,0.5],[1,0.5]];portConstraint=eastwest;whiteSpace=wrap;html=1;" vertex="1" parent="KTBIp18I1cc_x3fcVHSp-9">
          <mxGeometry y="26" width="140" height="26" as="geometry" />
        </mxCell>
        <mxCell id="KTBIp18I1cc_x3fcVHSp-35" style="edgeStyle=orthogonalEdgeStyle;rounded=0;orthogonalLoop=1;jettySize=auto;html=1;dashed=1;startArrow=block;startFill=0;" edge="1" parent="1" source="KTBIp18I1cc_x3fcVHSp-13" target="KTBIp18I1cc_x3fcVHSp-5">
          <mxGeometry relative="1" as="geometry" />
        </mxCell>
        <mxCell id="KTBIp18I1cc_x3fcVHSp-39" style="edgeStyle=orthogonalEdgeStyle;rounded=0;orthogonalLoop=1;jettySize=auto;html=1;dashed=1;startArrow=block;startFill=0;" edge="1" parent="1" source="KTBIp18I1cc_x3fcVHSp-13" target="KTBIp18I1cc_x3fcVHSp-9">
          <mxGeometry relative="1" as="geometry" />
        </mxCell>
        <mxCell id="KTBIp18I1cc_x3fcVHSp-13" value="canela" style="swimlane;fontStyle=0;childLayout=stackLayout;horizontal=1;startSize=26;fillColor=none;horizontalStack=0;resizeParent=1;resizeParentMax=0;resizeLast=0;collapsible=1;marginBottom=0;whiteSpace=wrap;html=1;" vertex="1" parent="1">
          <mxGeometry x="30" y="340" width="140" height="52" as="geometry" />
        </mxCell>
        <mxCell id="KTBIp18I1cc_x3fcVHSp-14" value="-costo(): double Q0.5" style="text;strokeColor=none;fillColor=none;align=left;verticalAlign=top;spacingLeft=4;spacingRight=4;overflow=hidden;rotatable=0;points=[[0,0.5],[1,0.5]];portConstraint=eastwest;whiteSpace=wrap;html=1;" vertex="1" parent="KTBIp18I1cc_x3fcVHSp-13">
          <mxGeometry y="26" width="140" height="26" as="geometry" />
        </mxCell>
        <mxCell id="KTBIp18I1cc_x3fcVHSp-17" value="Bebida" style="swimlane;fontStyle=1;align=center;verticalAlign=top;childLayout=stackLayout;horizontal=1;startSize=26;horizontalStack=0;resizeParent=1;resizeParentMax=0;resizeLast=0;collapsible=1;marginBottom=0;whiteSpace=wrap;html=1;" vertex="1" parent="1">
          <mxGeometry x="340" y="20" width="160" height="130" as="geometry" />
        </mxCell>
        <mxCell id="KTBIp18I1cc_x3fcVHSp-18" value="- descripcion : String&lt;br&gt;- costo: double" style="text;strokeColor=none;fillColor=none;align=left;verticalAlign=top;spacingLeft=4;spacingRight=4;overflow=hidden;rotatable=0;points=[[0,0.5],[1,0.5]];portConstraint=eastwest;whiteSpace=wrap;html=1;" vertex="1" parent="KTBIp18I1cc_x3fcVHSp-17">
          <mxGeometry y="26" width="160" height="44" as="geometry" />
        </mxCell>
        <mxCell id="KTBIp18I1cc_x3fcVHSp-19" value="" style="line;strokeWidth=1;fillColor=none;align=left;verticalAlign=middle;spacingTop=-1;spacingLeft=3;spacingRight=3;rotatable=0;labelPosition=right;points=[];portConstraint=eastwest;strokeColor=inherit;" vertex="1" parent="KTBIp18I1cc_x3fcVHSp-17">
          <mxGeometry y="70" width="160" height="8" as="geometry" />
        </mxCell>
        <mxCell id="KTBIp18I1cc_x3fcVHSp-20" value="+ getDescripcion() : String &lt;br&gt;+ getCosto() : double" style="text;strokeColor=none;fillColor=none;align=left;verticalAlign=top;spacingLeft=4;spacingRight=4;overflow=hidden;rotatable=0;points=[[0,0.5],[1,0.5]];portConstraint=eastwest;whiteSpace=wrap;html=1;" vertex="1" parent="KTBIp18I1cc_x3fcVHSp-17">
          <mxGeometry y="78" width="160" height="52" as="geometry" />
        </mxCell>
        <mxCell id="KTBIp18I1cc_x3fcVHSp-36" style="edgeStyle=orthogonalEdgeStyle;rounded=0;orthogonalLoop=1;jettySize=auto;html=1;startArrow=block;startFill=0;dashed=1;" edge="1" parent="1" source="KTBIp18I1cc_x3fcVHSp-21" target="KTBIp18I1cc_x3fcVHSp-5">
          <mxGeometry relative="1" as="geometry" />
        </mxCell>
        <mxCell id="KTBIp18I1cc_x3fcVHSp-40" style="edgeStyle=orthogonalEdgeStyle;rounded=0;orthogonalLoop=1;jettySize=auto;html=1;dashed=1;endArrow=block;endFill=0;" edge="1" parent="1" source="KTBIp18I1cc_x3fcVHSp-21" target="KTBIp18I1cc_x3fcVHSp-9">
          <mxGeometry relative="1" as="geometry" />
        </mxCell>
        <mxCell id="KTBIp18I1cc_x3fcVHSp-21" value="chocolate" style="swimlane;fontStyle=0;childLayout=stackLayout;horizontal=1;startSize=26;fillColor=none;horizontalStack=0;resizeParent=1;resizeParentMax=0;resizeLast=0;collapsible=1;marginBottom=0;whiteSpace=wrap;html=1;" vertex="1" parent="1">
          <mxGeometry x="320" y="240" width="140" height="52" as="geometry" />
        </mxCell>
        <mxCell id="KTBIp18I1cc_x3fcVHSp-22" value="-costo(): double Q3" style="text;strokeColor=none;fillColor=none;align=left;verticalAlign=top;spacingLeft=4;spacingRight=4;overflow=hidden;rotatable=0;points=[[0,0.5],[1,0.5]];portConstraint=eastwest;whiteSpace=wrap;html=1;" vertex="1" parent="KTBIp18I1cc_x3fcVHSp-21">
          <mxGeometry y="26" width="140" height="26" as="geometry" />
        </mxCell>
        <mxCell id="KTBIp18I1cc_x3fcVHSp-37" style="edgeStyle=orthogonalEdgeStyle;rounded=0;orthogonalLoop=1;jettySize=auto;html=1;startArrow=block;startFill=0;dashed=1;" edge="1" parent="1" source="KTBIp18I1cc_x3fcVHSp-29" target="KTBIp18I1cc_x3fcVHSp-5">
          <mxGeometry relative="1" as="geometry" />
        </mxCell>
        <mxCell id="KTBIp18I1cc_x3fcVHSp-41" style="edgeStyle=orthogonalEdgeStyle;rounded=0;orthogonalLoop=1;jettySize=auto;html=1;dashed=1;endArrow=block;endFill=0;" edge="1" parent="1" source="KTBIp18I1cc_x3fcVHSp-29" target="KTBIp18I1cc_x3fcVHSp-9">
          <mxGeometry relative="1" as="geometry" />
        </mxCell>
        <mxCell id="KTBIp18I1cc_x3fcVHSp-29" value="leche" style="swimlane;fontStyle=0;childLayout=stackLayout;horizontal=1;startSize=26;fillColor=none;horizontalStack=0;resizeParent=1;resizeParentMax=0;resizeLast=0;collapsible=1;marginBottom=0;whiteSpace=wrap;html=1;" vertex="1" parent="1">
          <mxGeometry x="660" y="350" width="140" height="52" as="geometry" />
        </mxCell>
        <mxCell id="KTBIp18I1cc_x3fcVHSp-30" value="-costo(): double Q2" style="text;strokeColor=none;fillColor=none;align=left;verticalAlign=top;spacingLeft=4;spacingRight=4;overflow=hidden;rotatable=0;points=[[0,0.5],[1,0.5]];portConstraint=eastwest;whiteSpace=wrap;html=1;" vertex="1" parent="KTBIp18I1cc_x3fcVHSp-29">
          <mxGeometry y="26" width="140" height="26" as="geometry" />
        </mxCell>
      </root>
    </mxGraphModel>
  </diagram>
</mxfile>
